<?xml version="1.0" encoding="UTF-8" standalone="no"?>
<!DOCTYPE svg PUBLIC "-//W3C//DTD SVG 1.1//EN"
 "http://www.w3.org/Graphics/SVG/1.1/DTD/svg11.dtd">
<!-- Generated by graphviz version 3.0.0 (20220226.1711)
 -->
<!-- Title: dependencies Pages: 1 -->
<svg width="210pt" height="174pt"
 viewBox="0.00 0.00 210.00 173.80" xmlns="http://www.w3.org/2000/svg" xmlns:xlink="http://www.w3.org/1999/xlink">
<g id="graph0" class="graph" transform="scale(1 1) rotate(0) translate(4 169.8)">
<title>dependencies</title>
<polygon fill="white" stroke="transparent" points="-4,4 -4,-169.8 206,-169.8 206,4 -4,4"/>
<text text-anchor="middle" x="101" y="-8.2" font-family="sans-serif" font-size="14.00">dependencies</text>
<g id="clust1" class="cluster">
<title>cluster_GamedataModule</title>
<polygon fill="none" stroke="black" stroke-dasharray="1,5" points="8,-32.8 8,-157.8 194,-157.8 194,-32.8 8,-32.8"/>
</g>
<g id="clust6" class="cluster">
<title>cluster_GamedataModule_providers</title>
<polygon fill="none" stroke="black" points="16,-40.8 16,-92.8 186,-92.8 186,-40.8 16,-40.8"/>
</g>
<!-- gamedataService -->
<g id="node1" class="node">
<title>gamedataService</title>
<ellipse fill="#fdb462" stroke="black" cx="101" cy="-66.8" rx="76.98" ry="18"/>
<text text-anchor="middle" x="101" y="-62.6" font-family="Times,serif" font-size="14.00">gamedataService</text>
</g>
<!-- GamedataModule -->
<g id="node2" class="node">
<title>GamedataModule</title>
<polygon fill="#8dd3c7" stroke="black" points="159.3,-149.8 156.3,-153.8 135.3,-153.8 132.3,-149.8 42.7,-149.8 42.7,-113.8 159.3,-113.8 159.3,-149.8"/>
<text text-anchor="middle" x="101" y="-127.6" font-family="Times,serif" font-size="14.00">GamedataModule</text>
</g>
<!-- gamedataService&#45;&gt;GamedataModule -->
<g id="edge1" class="edge">
<title>gamedataService&#45;&gt;GamedataModule</title>
<path fill="none" stroke="black" d="M101,-84.91C101,-84.91 101,-103.79 101,-103.79"/>
<polygon fill="black" stroke="black" points="97.5,-103.79 101,-113.79 104.5,-103.79 97.5,-103.79"/>
</g>
</g>
</svg>
