<?xml version="1.0" encoding="UTF-8" standalone="no"?>
<!DOCTYPE svg PUBLIC "-//W3C//DTD SVG 1.1//EN"
 "http://www.w3.org/Graphics/SVG/1.1/DTD/svg11.dtd">
<!-- Generated by graphviz version 3.0.0 (20220226.1711)
 -->
<!-- Title: dependencies Pages: 1 -->
<svg width="908pt" height="174pt"
 viewBox="0.00 0.00 908.00 173.80" xmlns="http://www.w3.org/2000/svg" xmlns:xlink="http://www.w3.org/1999/xlink">
<g id="graph0" class="graph" transform="scale(1 1) rotate(0) translate(4 169.8)">
<title>dependencies</title>
<polygon fill="white" stroke="transparent" points="-4,4 -4,-169.8 904,-169.8 904,4 -4,4"/>
<text text-anchor="middle" x="450" y="-8.2" font-family="sans-serif" font-size="14.00">dependencies</text>
<g id="clust1" class="cluster">
<title>cluster_AppModule</title>
<polygon fill="none" stroke="black" stroke-dasharray="1,5" points="8,-32.8 8,-157.8 892,-157.8 892,-32.8 8,-32.8"/>
</g>
<g id="clust3" class="cluster">
<title>cluster_AppModule_imports</title>
<polygon fill="none" stroke="black" points="16,-40.8 16,-92.8 884,-92.8 884,-40.8 16,-40.8"/>
</g>
<!-- AuthModule -->
<g id="node1" class="node">
<title>AuthModule</title>
<polygon fill="#8dd3c7" stroke="black" points="875.55,-84.8 872.55,-88.8 851.55,-88.8 848.55,-84.8 788.45,-84.8 788.45,-48.8 875.55,-48.8 875.55,-84.8"/>
<text text-anchor="middle" x="832" y="-62.6" font-family="Times,serif" font-size="14.00">AuthModule</text>
</g>
<!-- AppModule -->
<g id="node8" class="node">
<title>AppModule</title>
<polygon fill="#8dd3c7" stroke="black" points="492.66,-149.8 489.66,-153.8 468.66,-153.8 465.66,-149.8 409.34,-149.8 409.34,-113.8 492.66,-113.8 492.66,-149.8"/>
<text text-anchor="middle" x="451" y="-127.6" font-family="Times,serif" font-size="14.00">AppModule</text>
</g>
<!-- AuthModule&#45;&gt;AppModule -->
<g id="edge1" class="edge">
<title>AuthModule&#45;&gt;AppModule</title>
<path fill="none" stroke="black" d="M832,-85.09C832,-107.01 832,-140.8 832,-140.8 832,-140.8 502.86,-140.8 502.86,-140.8"/>
<polygon fill="black" stroke="black" points="502.86,-137.3 492.86,-140.8 502.86,-144.3 502.86,-137.3"/>
</g>
<!-- BookmarkModule -->
<g id="node2" class="node">
<title>BookmarkModule</title>
<polygon fill="#8dd3c7" stroke="black" points="770.16,-84.8 767.16,-88.8 746.16,-88.8 743.16,-84.8 651.84,-84.8 651.84,-48.8 770.16,-48.8 770.16,-84.8"/>
<text text-anchor="middle" x="711" y="-62.6" font-family="Times,serif" font-size="14.00">BookmarkModule</text>
</g>
<!-- BookmarkModule&#45;&gt;AppModule -->
<g id="edge2" class="edge">
<title>BookmarkModule&#45;&gt;AppModule</title>
<path fill="none" stroke="black" d="M711,-84.91C711,-104.14 711,-131.8 711,-131.8 711,-131.8 502.77,-131.8 502.77,-131.8"/>
<polygon fill="black" stroke="black" points="502.77,-128.3 492.77,-131.8 502.77,-135.3 502.77,-128.3"/>
</g>
<!-- GamedataModule -->
<g id="node3" class="node">
<title>GamedataModule</title>
<polygon fill="#8dd3c7" stroke="black" points="634.3,-84.8 631.3,-88.8 610.3,-88.8 607.3,-84.8 517.7,-84.8 517.7,-48.8 634.3,-48.8 634.3,-84.8"/>
<text text-anchor="middle" x="576" y="-62.6" font-family="Times,serif" font-size="14.00">GamedataModule</text>
</g>
<!-- GamedataModule&#45;&gt;AppModule -->
<g id="edge3" class="edge">
<title>GamedataModule&#45;&gt;AppModule</title>
<path fill="none" stroke="black" d="M576,-84.83C576,-101.2 576,-122.8 576,-122.8 576,-122.8 502.97,-122.8 502.97,-122.8"/>
<polygon fill="black" stroke="black" points="502.97,-119.3 492.97,-122.8 502.97,-126.3 502.97,-119.3"/>
</g>
<!-- PrismaModule -->
<g id="node4" class="node">
<title>PrismaModule</title>
<polygon fill="#8dd3c7" stroke="black" points="500.44,-84.8 497.44,-88.8 476.44,-88.8 473.44,-84.8 401.56,-84.8 401.56,-48.8 500.44,-48.8 500.44,-84.8"/>
<text text-anchor="middle" x="451" y="-62.6" font-family="Times,serif" font-size="14.00">PrismaModule</text>
</g>
<!-- PrismaModule&#45;&gt;AppModule -->
<g id="edge4" class="edge">
<title>PrismaModule&#45;&gt;AppModule</title>
<path fill="none" stroke="black" d="M451,-84.91C451,-84.91 451,-103.79 451,-103.79"/>
<polygon fill="black" stroke="black" points="447.5,-103.79 451,-113.79 454.5,-103.79 447.5,-103.79"/>
</g>
<!-- ReviewsModule -->
<g id="node5" class="node">
<title>ReviewsModule</title>
<polygon fill="#8dd3c7" stroke="black" points="383.77,-84.8 380.77,-88.8 359.77,-88.8 356.77,-84.8 276.23,-84.8 276.23,-48.8 383.77,-48.8 383.77,-84.8"/>
<text text-anchor="middle" x="330" y="-62.6" font-family="Times,serif" font-size="14.00">ReviewsModule</text>
</g>
<!-- ReviewsModule&#45;&gt;AppModule -->
<g id="edge5" class="edge">
<title>ReviewsModule&#45;&gt;AppModule</title>
<path fill="none" stroke="black" d="M330,-84.83C330,-101.2 330,-122.8 330,-122.8 330,-122.8 399.02,-122.8 399.02,-122.8"/>
<polygon fill="black" stroke="black" points="399.02,-126.3 409.02,-122.8 399.02,-119.3 399.02,-126.3"/>
</g>
<!-- UserModule -->
<g id="node6" class="node">
<title>UserModule</title>
<polygon fill="#8dd3c7" stroke="black" points="257.99,-84.8 254.99,-88.8 233.99,-88.8 230.99,-84.8 172.01,-84.8 172.01,-48.8 257.99,-48.8 257.99,-84.8"/>
<text text-anchor="middle" x="215" y="-62.6" font-family="Times,serif" font-size="14.00">UserModule</text>
</g>
<!-- UserModule&#45;&gt;AppModule -->
<g id="edge6" class="edge">
<title>UserModule&#45;&gt;AppModule</title>
<path fill="none" stroke="black" d="M215,-84.91C215,-104.14 215,-131.8 215,-131.8 215,-131.8 399.08,-131.8 399.08,-131.8"/>
<polygon fill="black" stroke="black" points="399.08,-135.3 409.08,-131.8 399.08,-128.3 399.08,-135.3"/>
</g>
<!-- VisitorcountModule -->
<g id="node7" class="node">
<title>VisitorcountModule</title>
<polygon fill="#8dd3c7" stroke="black" points="153.55,-84.8 150.55,-88.8 129.55,-88.8 126.55,-84.8 24.45,-84.8 24.45,-48.8 153.55,-48.8 153.55,-84.8"/>
<text text-anchor="middle" x="89" y="-62.6" font-family="Times,serif" font-size="14.00">VisitorcountModule</text>
</g>
<!-- VisitorcountModule&#45;&gt;AppModule -->
<g id="edge7" class="edge">
<title>VisitorcountModule&#45;&gt;AppModule</title>
<path fill="none" stroke="black" d="M89,-85.09C89,-107.01 89,-140.8 89,-140.8 89,-140.8 399.12,-140.8 399.12,-140.8"/>
<polygon fill="black" stroke="black" points="399.12,-144.3 409.12,-140.8 399.12,-137.3 399.12,-144.3"/>
</g>
</g>
</svg>
